HIERARCHY
ROOT SpineBase
{
  OFFSET 0.000000 0.000000 0.000000
  CHANNELS 6 Xposition Yposition Zposition Zrotation Xrotation Yrotation
  JOINT SpineMid
  {
    OFFSET -0.000000 28.392680 -0.000000
    CHANNELS 3 Zrotation Xrotation Yrotation
    JOINT SpineShoulder
    {
      OFFSET 0.351032 21.340891 -0.816111
      CHANNELS 3 Zrotation Xrotation Yrotation
      JOINT Neck
      {
        OFFSET 0.110284 7.079665 -0.612212
        CHANNELS 3 Zrotation Xrotation Yrotation
        JOINT Head
        {
          OFFSET 4.813290 11.327505 2.980268
          CHANNELS 3 Zrotation Xrotation Yrotation
          End Site
          {
            OFFSET 0 0 0
          }
        }
      }
      JOINT ShoulderLeft
      {
        OFFSET -5.133453 -5.607667 -12.320369
        CHANNELS 3 Zrotation Xrotation Yrotation
        JOINT ElbowLeft
        {
          OFFSET 0.147209 -24.069301 -4.916951
          CHANNELS 3 Zrotation Xrotation Yrotation
          JOINT WristLeft
          {
            OFFSET 5.466664 -23.247370 1.878979
            CHANNELS 3 Zrotation Xrotation Yrotation
            JOINT HandLeft
            {
              OFFSET -0.493593 -7.658405 2.144474
              CHANNELS 3 Zrotation Xrotation Yrotation
              JOINT HandTipLeft
              {
                OFFSET 2.083115 -6.333789 0.367696
                CHANNELS 3 Zrotation Xrotation Yrotation
                End Site
                {
                  OFFSET 0 0 0
                }
              }
              JOINT ThumbLeft
              {
                OFFSET -4.655920 0.012429 0.627591
                CHANNELS 3 Zrotation Xrotation Yrotation
                End Site
                {
                  OFFSET 0 0 0
                }
              }
            }
          }
        }
      }
      JOINT ShoulderRight
      {
        OFFSET 11.429763 -1.369827 10.238856
        CHANNELS 3 Zrotation Xrotation Yrotation
        JOINT ElbowRight
        {
          OFFSET 2.925201 -23.088195 5.111628
          CHANNELS 3 Zrotation Xrotation Yrotation
          JOINT WristRight
          {
            OFFSET -7.379679 -14.782636 -18.806202
            CHANNELS 3 Zrotation Xrotation Yrotation
            JOINT HandRight
            {
              OFFSET -1.799656 -0.641631 -3.388604
              CHANNELS 3 Zrotation Xrotation Yrotation
              JOINT HandTipRight
              {
                OFFSET -2.317145 -2.606066 -3.319295
                CHANNELS 3 Zrotation Xrotation Yrotation
                End Site
                {
                  OFFSET 0 0 0
                }
              }
              JOINT ThumbRight
              {
                OFFSET 1.467180 -5.351788 0.623777
                CHANNELS 3 Zrotation Xrotation Yrotation
                End Site
                {
                  OFFSET 0 0 0
                }
              }
            }
          }
        }
      }
    }
  }
  JOINT HipLeft
  {
    OFFSET -3.376113 1.499571 -5.384306
    CHANNELS 3 Zrotation Xrotation Yrotation
    JOINT KneeLeft
    {
      OFFSET -5.106750 -30.370460 0.395461
      CHANNELS 3 Zrotation Xrotation Yrotation
      JOINT AnkleLeft
      {
        OFFSET -7.619284 -26.306057 3.882030
        CHANNELS 3 Zrotation Xrotation Yrotation
        JOINT FootLeft
        {
          OFFSET 6.969110 -4.246994 -7.888755
          CHANNELS 3 Zrotation Xrotation Yrotation
          End Site
          {
            OFFSET 0 0 0
          }
        }
      }
    }
  }
  JOINT HipRight
  {
    OFFSET 2.828158 0.726141 -1.326707
    CHANNELS 3 Zrotation Xrotation Yrotation
    JOINT KneeRight
    {
      OFFSET -16.144213 -29.053658 5.200386
      CHANNELS 3 Zrotation Xrotation Yrotation
      JOINT AnkleRight
      {
        OFFSET -6.614503 -26.542704 8.688187
        CHANNELS 3 Zrotation Xrotation Yrotation
        JOINT FootRight
        {
          OFFSET 3.092518 -4.055409 -14.261118
          CHANNELS 3 Zrotation Xrotation Yrotation
          End Site
          {
            OFFSET 0 0 0
          }
        }
      }
    }
  }
}
MOTION
Frames: 11
Frame Time: 0.033333
52.140902 69.366238 361.658271 -7.211223 0.140829 -55.745980 0.799689 0.366980 55.482801 -0.573029 0.248924 -0.348276 5.823156 6.476354 -1.690570 0.000000 0.000000 0.000000 6.186964 4.015178 0.815123 0.031024 -2.776219 -0.002747 11.699584 -1.283466 3.136932 -9.955880 0.092674 -3.174557 0.000000 0.000000 0.000000 0.000000 0.000000 0.000000 7.028621 0.136336 0.598693 0.363585 -1.320448 0.204173 6.386089 5.284352 -44.153390 -20.871013 10.021569 27.807431 0.000000 0.000000 0.000000 0.000000 0.000000 0.000000 22.499133 32.728935 49.276011 -12.416799 1.862141 1.114474 -21.100646 -7.721936 -6.829959 0.000000 0.000000 0.000000 12.724642 9.118775 58.715927 -11.949087 9.376238 -5.813964 5.377518 -21.006581 -22.612685 0.000000 0.000000 0.000000
53.138446 69.213654 360.872313 -8.344362 -0.055530 -58.193933 0.824089 0.493458 57.875502 -0.471480 0.184478 -0.390443 6.624346 7.887526 -2.051135 0.000000 0.000000 0.000000 8.813751 5.259735 0.458417 -4.101729 -4.337621 -0.278698 10.189761 -4.465476 2.656310 -8.729173 5.491622 -1.507161 0.000000 0.000000 0.000000 0.000000 0.000000 0.000000 9.118284 -3.730925 0.412747 -3.106421 9.318715 0.409098 9.379887 -12.570956 -33.946282 -24.951767 17.966572 24.873151 0.000000 0.000000 0.000000 0.000000 0.000000 0.000000 22.237836 32.673939 51.924295 -10.615196 3.950376 0.615621 -22.751165 -9.329662 -7.300294 0.000000 0.000000 0.000000 12.942580 9.954308 61.119839 -12.208924 9.811922 -6.077263 7.125046 -19.597042 -24.094911 0.000000 0.000000 0.000000
54.638750 69.020389 360.140551 -9.198483 -0.532247 -60.357924 0.715103 0.655888 59.980054 -0.238448 0.150218 -0.409767 7.611041 9.300485 -2.600596 0.000000 0.000000 0.000000 11.237785 7.234850 -0.050328 -8.051207 -6.749535 -0.740494 9.630729 -6.425938 2.337471 -9.684077 9.113901 -0.220178 0.000000 0.000000 0.000000 0.000000 0.000000 0.000000 9.380897 -2.334551 0.470258 -3.835864 11.336223 0.229471 12.767540 -24.492902 -25.648051 -22.391803 18.159754 25.258404 0.000000 0.000000 0.000000 0.000000 0.000000 0.000000 21.296084 32.301720 54.398593 -9.005497 5.474351 0.199228 -21.369278 -7.628325 -5.920580 0.000000 0.000000 0.000000 12.977355 9.912572 63.475888 -11.924561 11.661518 -6.678067 9.500319 -18.276766 -25.265664 0.000000 0.000000 0.000000
56.526991 68.903410 359.521672 -9.774346 -1.278991 -60.843361 0.522647 0.881150 60.403242 0.104692 0.146564 -0.406256 8.228188 10.875290 -3.248189 0.000000 0.000000 0.000000 13.085696 8.780624 -0.621557 -11.905052 -8.192221 -1.218890 11.720124 -6.188175 2.528757 -13.155218 10.426708 0.584436 0.000000 0.000000 0.000000 0.000000 0.000000 0.000000 7.892301 3.338561 0.768923 -1.968766 6.021953 -0.569947 16.444988 -32.914078 -16.544651 -2.555375 8.549712 19.644298 0.000000 0.000000 0.000000 0.000000 0.000000 0.000000 20.944180 32.597988 54.704947 -10.659361 5.562395 0.061172 -17.697528 -4.900778 -3.655974 0.000000 0.000000 0.000000 12.079590 9.598284 63.793305 -12.183406 11.628455 -6.782827 12.621772 -15.339637 -26.458633 0.000000 0.000000 0.000000
58.546621 69.107117 358.973487 -10.250026 -2.182270 -61.090241 0.321148 1.137851 60.577409 0.501680 0.152994 -0.395914 8.325277 12.528635 -3.788683 0.000000 0.000000 0.000000 15.484797 10.318124 -1.505356 -16.629132 -9.361850 -1.699764 12.936414 -8.168606 2.533230 -13.935615 14.512877 2.242332 0.000000 0.000000 0.000000 0.000000 0.000000 0.000000 4.767847 12.921138 1.689792 2.093258 -5.487316 -1.364964 18.703944 -35.572537 -8.021169 8.266436 -1.657188 19.961057 0.000000 0.000000 0.000000 0.000000 0.000000 0.000000 20.163970 33.437636 54.684418 -13.476179 4.597694 0.162568 -16.333071 -5.906059 -3.390602 0.000000 0.000000 0.000000 11.779898 6.873217 64.606038 -10.145823 13.164166 -7.286386 12.809693 -14.436925 -21.006956 0.000000 0.000000 0.000000
60.583030 68.981063 358.289638 -10.717553 -2.831048 -57.928437 0.470698 1.345554 57.337955 0.531626 0.231540 -0.402771 10.403878 14.808461 -5.320293 0.000000 0.000000 0.000000 18.988019 13.007596 -2.814864 -21.633262 -11.711274 -2.442880 12.558273 -9.327199 2.014935 -14.724517 15.238739 3.195775 0.000000 0.000000 0.000000 0.000000 0.000000 0.000000 0.032550 25.598564 4.010754 8.038727 -22.757093 -0.263853 18.286519 -32.537139 -0.823972 11.279306 -7.899274 16.611648 0.000000 0.000000 0.000000 0.000000 0.000000 0.000000 21.836781 33.857650 50.611122 -17.189495 2.916273 0.329953 -13.605913 -4.507585 -1.385042 0.000000 0.000000 0.000000 11.588919 6.392843 61.321667 -12.234818 12.366805 -7.377086 15.090609 -13.017856 -18.803647 0.000000 0.000000 0.000000
62.475642 68.891497 357.711777 -11.089286 -3.409237 -52.113038 0.511644 0.976331 51.435588 0.438959 0.299863 -0.438068 11.722782 16.165346 -5.895444 0.000000 0.000000 0.000000 23.666841 17.492690 -4.707604 -26.199697 -14.062590 -3.165075 13.386987 -8.948812 1.737260 -16.665859 13.433733 3.215056 0.000000 0.000000 0.000000 0.000000 0.000000 0.000000 -6.683716 39.663720 8.885215 17.335255 -43.454759 4.953479 15.150715 -26.157300 -0.861207 15.350655 -13.665494 16.112787 0.000000 0.000000 0.000000 0.000000 0.000000 0.000000 24.994260 33.972744 43.405748 -20.886270 0.132037 0.555810 -12.141484 -2.421216 2.658852 0.000000 0.000000 0.000000 11.290917 8.241149 54.561620 -14.128865 10.163736 -6.872273 14.569748 -14.430449 -18.081315 0.000000 0.000000 0.000000
64.341896 68.835333 357.053903 -11.428073 -3.722885 -44.471926 0.707590 1.114016 43.750213 0.479329 0.323617 -0.441406 11.417715 16.056801 -5.612883 0.000000 0.000000 0.000000 27.460912 20.770578 -6.597930 -30.465006 -15.945742 -4.092097 15.899067 -2.676745 1.684222 -21.561908 12.334481 4.387583 0.000000 0.000000 0.000000 0.000000 0.000000 0.000000 -15.382303 50.120696 15.679521 34.242801 -61.766894 19.037940 15.987507 -24.881252 1.338818 10.922157 -9.511660 14.090329 0.000000 0.000000 0.000000 0.000000 0.000000 0.000000 29.397441 32.441917 34.533851 -23.348606 -2.329334 0.687868 -12.035559 -0.144076 7.998510 0.000000 0.000000 0.000000 11.933368 11.663735 45.262468 -15.532188 6.728949 -5.839628 11.498760 -19.920933 -22.216001 0.000000 0.000000 0.000000
65.971813 68.850422 356.432080 -11.736459 -3.852521 -36.650349 0.869255 1.014705 35.893889 0.566210 0.379933 -0.446698 9.879412 15.146922 -4.447394 0.000000 0.000000 0.000000 33.517747 24.812035 -9.754893 -32.238045 -14.777600 -2.529596 12.680691 -7.082473 0.583889 -21.630033 15.585822 6.600725 0.000000 0.000000 0.000000 0.000000 0.000000 0.000000 -23.411170 56.274756 22.542759 68.956951 -72.485247 52.045550 20.463105 -30.025555 2.939641 2.744820 3.368814 16.389136 0.000000 0.000000 0.000000 0.000000 0.000000 0.000000 32.854744 29.573116 26.400625 -23.891505 -4.345434 0.841532 -13.138169 1.640497 13.549926 0.000000 0.000000 0.000000 14.537716 15.974666 35.235101 -16.493476 3.385836 -4.476527 6.809315 -24.593081 -23.865292 0.000000 0.000000 0.000000
67.528206 68.860535 355.799555 -11.590275 -3.773276 -28.719505 0.958348 0.977243 27.988947 0.491151 0.414548 -0.440486 6.461845 13.905275 -2.648436 0.000000 0.000000 0.000000 34.691064 25.282946 -10.344163 -31.877405 -13.346014 -1.523127 11.276065 -8.204340 -0.008324 -24.316042 7.306083 2.401122 0.000000 0.000000 0.000000 0.000000 0.000000 0.000000 -28.333195 58.579704 26.491211 108.112647 -72.908695 90.384335 23.945749 -38.622693 -0.216292 -7.277171 20.555819 25.754819 0.000000 0.000000 0.000000 0.000000 0.000000 0.000000 34.274679 25.184539 19.495278 -22.308672 -5.505880 1.062592 -14.963053 2.913565 18.923287 0.000000 0.000000 0.000000 18.518332 19.295672 24.809144 -16.133649 0.306742 -2.547563 0.918078 -27.719283 -23.614516 0.000000 0.000000 0.000000
68.637598 68.872620 355.352068 -11.455051 -3.735412 -22.736369 0.999706 0.742886 22.011520 0.396183 0.336544 -0.449680 3.130394 13.274440 -1.020256 0.000000 0.000000 0.000000 31.436740 23.132017 -8.534496 -28.017202 -10.386022 -0.071163 9.350378 -6.091469 -0.842393 -22.291470 14.886328 7.529116 0.000000 0.000000 0.000000 0.000000 0.000000 0.000000 -28.566215 58.473590 26.553520 112.535703 -72.388202 94.966735 22.316839 -38.630462 -3.441601 -23.400239 30.099827 42.250133 0.000000 0.000000 0.000000 0.000000 0.000000 0.000000 36.803058 24.633618 12.851229 -22.145045 -7.536943 1.097852 -16.562073 4.444786 22.988095 0.000000 0.000000 0.000000 23.504523 22.825771 15.682002 -16.025394 -2.770001 -0.300226 -4.764321 -29.251333 -20.672063 0.000000 0.000000 0.000000
